<svg xmlns="http://www.w3.org/2000/svg" width="200" height="200" viewBox="0 0 200 200">
  <style>
    .st0{fill:#E0E0E0;}
    .st1{fill:#BDBDBD;}
    .st2{fill:#9E9E9E;}
    .st3{fill:#757575;}
  </style>
  <g>
    <path class="st0" d="M160,40H40c-5.5,0-10,4.5-10,10v100c0,5.5,4.5,10,10,10h120c5.5,0,10-4.5,10-10V50C170,44.5,165.5,40,160,40z"/>
    <path class="st1" d="M150,60H50c-2.8,0-5,2.2-5,5v70c0,2.8,2.2,5,5,5h100c2.8,0,5-2.2,5-5V65C155,62.2,152.8,60,150,60z"/>
    <path class="st2" d="M130,80H70c-1.1,0-2,0.9-2,2v30c0,1.1,0.9,2,2,2h60c1.1,0,2-0.9,2-2V82C132,80.9,131.1,80,130,80z"/>
    <circle class="st3" cx="100" cy="95" r="10"/>
    <rect x="70" y="120" class="st3" width="60" height="5" rx="2.5"/>
    <rect x="80" y="130" class="st3" width="40" height="5" rx="2.5"/>
  </g>
  <g>
    <line x1="40" y1="160" x2="160" y2="160" style="stroke:#E0E0E0;stroke-width:2"/>
    <circle cx="60" cy="160" r="5" class="st3"/>
    <circle cx="80" cy="160" r="5" class="st3"/>
    <circle cx="100" cy="160" r="5" class="st3"/>
    <circle cx="120" cy="160" r="5" class="st3"/>
    <circle cx="140" cy="160" r="5" class="st3"/>
  </g>
</svg>