<svg xmlns="http://www.w3.org/2000/svg" width="400" height="400" viewBox="0 0 400 400">
  <!-- Background Circle -->
  <circle cx="200" cy="200" r="180" fill="#FFD32C" opacity="0.1" />
  
  <!-- Student Avatar Frame -->
  <circle cx="200" cy="160" r="60" fill="#f5f5f5" stroke="#FFD32C" stroke-width="4" />
  
  <!-- Abstract Student Icon -->
  <circle cx="200" cy="140" r="25" fill="#FFD32C" />
  <path d="M160 190 Q200 240 240 190" fill="none" stroke="#FFD32C" stroke-width="4" />
  
  <!-- Rating Stars -->
  <g transform="translate(140, 240)">
    <path d="M10,0 L13,6 L20,7 L15,12 L16,19 L10,16 L4,19 L5,12 L0,7 L7,6 Z" fill="#FFD32C" transform="translate(0, 0)" />
    <path d="M10,0 L13,6 L20,7 L15,12 L16,19 L10,16 L4,19 L5,12 L0,7 L7,6 Z" fill="#FFD32C" transform="translate(30, 0)" />
    <path d="M10,0 L13,6 L20,7 L15,12 L16,19 L10,16 L4,19 L5,12 L0,7 L7,6 Z" fill="#FFD32C" transform="translate(60, 0)" />
    <path d="M10,0 L13,6 L20,7 L15,12 L16,19 L10,16 L4,19 L5,12 L0,7 L7,6 Z" fill="#FFD32C" transform="translate(90, 0)" />
    <path d="M10,0 L13,6 L20,7 L15,12 L16,19 L10,16 L4,19 L5,12 L0,7 L7,6 Z" fill="#FFD32C" transform="translate(120, 0)" />
  </g>
  
  <!-- Text Lines (Placeholder) -->
  <rect x="100" y="280" width="200" height="4" rx="2" fill="#ddd" />
  <rect x="120" y="290" width="160" height="4" rx="2" fill="#ddd" />
  <rect x="140" y="300" width="120" height="4" rx="2" fill="#ddd" />
</svg>